<?xml version="1.0" standalone="no"?>
<!DOCTYPE svg PUBLIC "-//W3C//DTD SVG 20010904//EN"
 "http://www.w3.org/TR/2001/REC-SVG-20010904/DTD/svg10.dtd">
<svg version="1.0" xmlns="http://www.w3.org/2000/svg"
 width="600.000000pt" height="600.000000pt" viewBox="0 0 600.000000 600.000000"
 preserveAspectRatio="xMidYMid meet">
<metadata>
Created by potrace 1.16, written by Peter Selinger 2001-2019
</metadata>
<g transform="translate(0.000000,600.000000) scale(0.100000,-0.100000)"
fill="#000000" stroke="none">
<path d="M1250 5535 c-188 -24 -499 -89 -548 -114 -22 -12 265 -347 502 -588
66 -68 126 -123 132 -123 7 0 108 61 226 135 289 181 559 334 816 463 127 64
207 109 200 113 -24 13 -337 79 -475 100 -182 28 -676 36 -853 14z"/>
<path d="M4250 5534 c-86 -8 -295 -36 -330 -44 -19 -5 -55 -12 -80 -15 -49 -7
-197 -40 -245 -55 -16 -5 -86 -26 -155 -46 -122 -35 -336 -109 -415 -144 -22
-9 -53 -23 -70 -30 -16 -7 -35 -14 -41 -16 -29 -5 -508 -232 -528 -249 -7 -5
-61 -35 -121 -65 -59 -30 -113 -59 -119 -65 -7 -5 -42 -26 -79 -44 -37 -19
-67 -39 -67 -43 0 -4 -6 -8 -12 -8 -15 0 -230 -128 -239 -142 -3 -5 -9 -9 -13
-8 -4 1 -45 -21 -92 -50 -77 -47 -101 -70 -73 -70 6 0 22 -14 36 -30 14 -17
28 -29 31 -26 2 3 13 -6 24 -19 11 -14 24 -25 30 -25 5 0 19 -11 30 -26 11
-14 22 -23 24 -21 2 2 23 -13 46 -35 23 -21 46 -38 52 -38 6 0 17 -9 24 -21 7
-12 15 -19 18 -16 2 2 21 -11 41 -29 20 -18 40 -31 45 -28 4 3 8 1 8 -5 0 -11
113 -91 129 -91 5 0 11 -4 13 -9 4 -13 178 -121 195 -121 7 0 13 -4 13 -8 0
-8 186 -101 214 -107 10 -2 21 -6 64 -22 9 -3 19 -7 22 -7 3 -1 11 -5 18 -9 6
-5 12 -6 12 -2 0 3 9 1 20 -5 35 -19 201 -50 327 -62 216 -20 414 12 657 107
65 24 123 48 129 52 7 4 17 8 22 9 6 1 57 22 115 47 142 61 174 74 183 75 4 0
19 8 33 16 13 9 24 14 24 12 0 -3 17 2 38 11 20 8 48 20 62 26 14 6 27 11 30
12 19 4 87 29 95 34 6 3 12 6 15 6 3 1 50 16 105 35 55 19 105 35 110 36 6 1
64 18 130 37 115 35 337 95 373 102 9 1 82 17 162 35 80 17 154 34 165 36 32
6 345 63 397 71 l47 8 -58 103 c-31 56 -60 100 -63 97 -2 -3 -5 1 -5 8 0 17
-139 258 -145 252 -2 -3 -5 1 -5 7 0 18 -139 259 -145 253 -2 -3 -5 1 -5 7 0
7 -30 66 -67 130 l-68 118 -51 15 c-63 18 -209 52 -257 59 -201 33 -256 38
-485 41 -137 1 -270 1 -295 -1z"/>
<path d="M504 5093 c-37 -65 -67 -124 -67 -130 0 -7 -4 -13 -8 -13 -9 0 -182
-301 -182 -317 0 -7 -4 -13 -8 -13 -9 0 -142 -231 -142 -247 0 -7 -4 -13 -8
-13 -13 0 -39 -56 -31 -65 4 -5 2 -5 -4 -2 -6 4 -16 -5 -23 -19 -12 -28 -15
-88 -3 -81 4 3 8 -10 9 -28 2 -39 91 -311 107 -328 6 -7 11 -16 12 -22 1 -29
17 -64 27 -58 5 3 7 1 3 -5 -7 -12 23 -82 36 -82 5 0 7 -4 4 -9 -9 -14 5 -42
17 -34 6 3 7 1 3 -5 -8 -13 71 -162 85 -162 5 0 8 -3 7 -7 -4 -17 14 -53 24
-47 7 4 8 2 4 -4 -4 -6 2 -20 14 -32 11 -11 20 -22 20 -25 0 -3 0 -10 0 -16 0
-5 4 -8 8 -5 5 3 9 -1 9 -8 0 -17 62 -106 74 -106 6 0 8 -4 5 -8 -7 -12 161
-226 250 -320 41 -42 75 -79 76 -82 2 -3 7 -4 11 -2 5 1 6 -1 3 -6 -3 -5 29
-42 71 -83 42 -41 72 -67 68 -59 -5 8 20 -16 55 -53 34 -37 64 -66 66 -64 2 1
33 -25 70 -60 37 -34 71 -60 76 -57 4 3 8 1 8 -5 0 -11 123 -111 137 -111 4 0
14 -9 21 -21 7 -12 16 -18 19 -15 4 3 13 -3 20 -14 8 -11 19 -18 24 -15 5 4 9
1 9 -5 0 -6 7 -13 16 -17 9 -3 27 -16 41 -29 36 -34 352 -246 374 -251 10 -3
19 -9 19 -13 0 -4 17 -15 37 -26 20 -10 44 -25 52 -32 9 -7 20 -12 25 -11 5 0
12 -4 15 -9 9 -14 191 -123 191 -114 0 4 4 2 8 -4 10 -15 132 -85 132 -76 0 4
4 2 8 -4 9 -14 74 -49 85 -46 4 1 7 -2 7 -6 0 -5 19 -17 42 -28 24 -10 46 -23
50 -29 5 -6 8 -6 8 0 0 6 3 6 8 -1 17 -25 152 -87 152 -70 0 3 14 89 31 193
17 103 31 218 32 254 1 37 5 65 8 63 7 -4 15 91 25 286 24 458 -111 882 -370
1166 -68 75 -263 241 -277 236 -5 -1 -9 2 -9 7 0 8 -218 177 -230 178 -3 0
-25 19 -50 41 -24 23 -46 40 -47 38 -2 -2 -25 16 -51 40 -25 24 -48 42 -49 40
-2 -2 -29 21 -60 50 -32 29 -59 51 -61 49 -2 -2 -20 14 -39 36 -20 22 -38 37
-40 35 -3 -3 -128 118 -277 267 -265 265 -397 408 -595 649 -53 64 -101 117
-108 117 -6 1 -42 -52 -79 -116z"/>
<path d="M5790 4210 c-256 -47 -701 -147 -715 -162 -2 -2 1 -109 7 -238 12
-269 5 -849 -12 -1053 -7 -76 -9 -142 -5 -145 10 -10 207 197 310 325 163 203
317 448 420 668 105 221 209 532 203 604 l-3 38 -205 -37z"/>
<path d="M4630 3939 c-41 -16 -84 -33 -95 -38 -11 -5 -31 -13 -45 -17 -14 -3
-47 -16 -75 -29 -27 -12 -81 -35 -120 -50 -202 -81 -606 -309 -622 -351 -3 -8
-9 -12 -13 -9 -5 3 -20 -8 -33 -25 -14 -16 -30 -30 -34 -30 -5 0 -38 -29 -73
-65 -35 -36 -61 -65 -57 -65 4 0 -6 -12 -22 -27 -63 -58 -199 -271 -184 -287
4 -3 2 -6 -4 -6 -15 0 -57 -99 -87 -203 -35 -120 -50 -209 -91 -527 -20 -151
-45 -329 -56 -394 -11 -65 -17 -126 -14 -135 3 -8 3 -12 -2 -8 -7 8 -62 -230
-66 -288 -1 -16 -4 -32 -7 -35 -8 -7 -113 -391 -114 -417 -1 -12 -3 -20 -5
-18 -7 8 -150 -438 -144 -449 3 -6 2 -7 -3 -3 -10 10 -46 -91 -37 -106 3 -5 2
-7 -4 -4 -12 7 -35 -62 -26 -76 3 -6 1 -7 -5 -3 -7 4 -12 3 -12 -3 0 -5 -3
-16 -6 -25 -6 -14 48 -16 562 -16 l568 0 36 38 c19 21 28 29 20 18 -24 -34
130 132 191 205 140 167 351 502 331 524 -4 5 -2 5 4 2 13 -8 127 239 118 255
-4 7 -3 8 4 4 11 -7 16 7 15 41 -1 7 3 11 7 8 8 -5 108 287 135 393 9 34 13
68 9 74 -4 6 -3 8 3 5 12 -8 47 148 37 165 -4 6 -3 8 3 5 18 -11 86 418 113
713 27 304 39 902 23 1178 -7 131 -2 128 -123 81z"/>
<path d="M1396 1833 c4 -16 24 -86 46 -158 110 -363 299 -742 510 -1025 140
-187 362 -427 388 -418 15 5 59 120 149 388 71 213 157 508 150 513 -2 2 -92
50 -199 107 -358 189 -684 382 -922 546 -59 41 -112 74 -118 74 -6 0 -8 -11
-4 -27z"/>
</g>
</svg>
